<svg xmlns="http://www.w3.org/2000/svg" width="1164.629" height="563.493" viewBox="0 0 1164.629 563.493">
  <g id="Group_18" data-name="Group 18" transform="translate(-1112.684 -34.728)">
    <g id="Group_14" data-name="Group 14">
      <path id="Path_72" data-name="Path 72" d="M1389.956,317.579l189.122-109.191a93.055,93.055,0,0,0-93.055-161.176L1159.228,235.889Z" fill="#ea4335"/>
    </g>
    <g id="Group_15" data-name="Group 15">
      <path id="Path_73" data-name="Path 73" d="M1532.462,598.221a93.068,93.068,0,0,0,46.616-173.66l-326.8-188.672a93.055,93.055,0,0,0-93.055,161.177l326.795,188.671A92.607,92.607,0,0,0,1532.462,598.221Z" fill="#4285f4"/>
    </g>
    <g id="Group_16" data-name="Group 16">
      <path id="Path_74" data-name="Path 74" d="M1857.538,598.221a92.608,92.608,0,0,0,46.44-12.484l326.791-188.671L2002.975,313.68,1810.923,424.561a93.067,93.067,0,0,0,46.615,173.66Z" fill="#fbbc04"/>
    </g>
    <g id="Group_17" data-name="Group 17">
      <path id="Path_75" data-name="Path 75" d="M2184.154,409.549a93.067,93.067,0,0,0,46.615-173.66L1903.978,47.212a93.055,93.055,0,1,0-93.055,161.176l326.791,188.678A92.67,92.67,0,0,0,2184.154,409.549Z" fill="#0f9d58"/>
    </g>
  </g>
</svg>
